<svg xmlns="http://www.w3.org/2000/svg">
  <defs>
    <symbol id="search" viewBox="0 0 32 32">
      <path d="m29 29-6.283-6.283"/>
      <path fill="none" d="M14.556 26.111c6.382 0 11.555-5.173 11.555-11.555S20.938 3.001 14.556 3.001 3.001 8.174 3.001 14.556s5.173 11.555 11.555 11.555z"/>
    </symbol>
    <symbol id="arrow" fill="none" viewBox="0 0 32 32">
      <path d="M25.333 16H6.666M16 25.333 6.667 16 16 6.667"/>
    </symbol>
    <symbol id="film" fill="none" viewBox="0 0 24 24">
      <path d="M19.82 2H4.18C2.97602 2 2 2.97602 2 4.18v15.64C2 21.024 2.97602 22 4.18 22h15.64c1.204 0 2.18-.976 2.18-2.18V4.18C22 2.97602 21.024 2 19.82 2ZM7 2v20M17 2v20M2 12h20M2 7h5M2 17h5m10 0h5M17 7h5"/>
    </symbol>
    <symbol id="hearth" viewBox="0 0 32 32">
      <path d="m16 30.144-2.24-2.218C5.44 20.639 0 15.728 0 9.708 0 4.797 3.84.995 8.8.995c2.72 0 5.44 1.267 7.2 3.327C17.76 2.263 20.48.995 23.2.995c4.96 0 8.8 3.802 8.8 8.713 0 6.02-5.44 10.931-13.76 18.218L16 30.144z"/>
    </symbol>
    <symbol id="close" viewBox="0 0 32 32">
      <path d="m8 8 14 14M8 22 22 8"/>
    </symbol>
    <symbol id="icon-github" viewBox="0 0 32 32">
    <path d="M16 0c-8.788 0-16 7.212-16 16 0 7.499 5.262 14.312 12.25 16v-5.293c-0.692 0.152-1.33 0.156-2.034-0.052-0.946-0.279-1.714-0.909-2.284-1.869-0.364-0.613-1.008-1.278-1.68-1.23l-0.165-1.868c1.453-0.124 2.711 0.886 3.457 2.14 0.332 0.558 0.713 0.884 1.203 1.029 0.473 0.14 0.982 0.072 1.574-0.137 0.149-1.186 0.692-1.63 1.102-2.255v-0.001c-4.167-0.622-5.828-2.832-6.488-4.578-0.874-2.317-0.405-5.212 1.14-7.041 0.030-0.036 0.084-0.129 0.063-0.194-0.708-2.139 0.155-3.909 0.187-4.097 0.817 0.242 0.95-0.243 3.551 1.337l0.449 0.27c0.188 0.112 0.129 0.048 0.317 0.034 1.086-0.295 2.23-0.458 3.358-0.472 1.136 0.015 2.273 0.178 3.404 0.484l0.145 0.015c-0.013-0.002 0.040-0.009 0.127-0.062 3.248-1.968 3.132-1.324 4.003-1.608 0.032 0.188 0.883 1.987 0.182 4.099-0.095 0.291 2.816 2.956 1.203 7.235-0.659 1.746-2.32 3.957-6.487 4.578v0.001c0.534 0.814 1.176 1.247 1.173 2.927v6.608c6.988-1.688 12.25-8.501 12.25-16 0-8.788-7.212-16-16-16v0z"></path>
    </symbol>
    <symbol id="icon-linkedin" viewBox="0 0 32 32">
    <path d="M31.992 32v-0.001h0.008v-11.736c0-5.741-1.236-10.164-7.948-10.164-3.227 0-5.392 1.771-6.276 3.449h-0.093v-2.913h-6.364v21.364h6.627v-10.579c0-2.785 0.528-5.479 3.977-5.479 3.399 0 3.449 3.179 3.449 5.657v10.401h6.62z"></path>
    <path d="M0.528 10.636h6.635v21.364h-6.635v-21.364z"></path>
    <path d="M3.843 0c-2.121 0-3.843 1.721-3.843 3.843s1.721 3.879 3.843 3.879c2.121 0 3.843-1.757 3.843-3.879-0.001-2.121-1.723-3.843-3.843-3.843v0z"></path>
    </symbol>
    <symbol id="arrow-up" viewBox="0 0 32 32">
    <path d="M27.414 12.586l-10-10c-0.781-0.781-2.047-0.781-2.828 0l-10 10c-0.781 0.781-0.781 2.047 0 2.828s2.047 0.781 2.828 0l6.586-6.586v19.172c0 1.105 0.895 2 2 2s2-0.895 2-2v-19.172l6.586 6.586c0.39 0.39 0.902 0.586 1.414 0.586s1.024-0.195 1.414-0.586c0.781-0.781 0.781-2.047 0-2.828z"></path>
    </symbol>
  </defs>
</svg>